<svg xmlns="http://www.w3.org/2000/svg" xmlns:xlink="http://www.w3.org/1999/xlink" version="1.1" x="0px" y="0px" viewBox="0 0 32 40" enable-background="new 0 0 32 32" xml:space="preserve"><path d="M24.135,10.887c0-4.059-3.795-7.62-8.12-7.62s-8.12,3.561-8.12,7.62c0,3.648,1.389,5.001,2.613,6.195  c1.161,1.131,2.162,2.111,2.174,4.929c-0.039,0.071-0.066,0.148-0.066,0.235v3.679c0,1.034,0.828,1.874,1.854,1.902  c0.209,0.648,0.809,1.119,1.527,1.119c0.716,0,1.317-0.47,1.528-1.116c1.043-0.009,1.89-0.859,1.89-1.906v-3.679  c0-0.001-0.001-0.002-0.001-0.003c0-0.034-0.013-0.067-0.02-0.101c-0.007-0.031-0.008-0.065-0.02-0.094c0-0.001,0-0.002-0.001-0.004  c-0.004-0.01-0.013-0.016-0.018-0.025c0.047-2.707,1.03-3.715,2.172-4.865C22.749,15.925,24.135,14.53,24.135,10.887z   M14.743,17.049c-0.547-2.335-1.226-5.242-0.643-5.978c0.055-0.069,0.14-0.14,0.348-0.14c0.302,0,0.672,0.292,1.003,0.712  c-0.415,0.732-0.679,1.562-0.679,2.191c0,0.383,0.091,0.698,0.272,0.936c0.153,0.203,0.445,0.444,0.961,0.444  c0.545,0,0.855-0.247,1.019-0.454c0.198-0.25,0.299-0.581,0.299-0.984c0-0.624-0.26-1.425-0.673-2.135  c0.315-0.421,0.652-0.711,0.894-0.711c0.275,0,0.386,0.095,0.45,0.178c0.595,0.762-0.111,3.596-0.68,5.874  c-0.421,1.687-0.835,3.404-0.924,4.763h-0.788C15.518,20.421,15.134,18.721,14.743,17.049z M15.772,13.834  c0-0.352,0.112-0.764,0.285-1.164c0.163,0.382,0.266,0.772,0.266,1.107c0,0.165-0.03,0.297-0.083,0.363  c-0.014,0.018-0.059,0.074-0.234,0.074c-0.128,0-0.154-0.036-0.165-0.049C15.825,14.145,15.772,14.058,15.772,13.834z   M18.414,23.998l-4.766,2.09c-0.01-0.055-0.033-0.105-0.033-0.163v-0.809l4.799-2.104V23.998z M16.528,22.746l-2.913,1.277v-1.277  H16.528z M17.508,26.832h-2.986c-0.02,0-0.036-0.01-0.055-0.011l3.948-1.73v0.834C18.414,26.425,18.008,26.832,17.508,26.832z   M18.369,21.746h-0.976c0.092-1.257,0.488-2.901,0.893-4.521c0.747-2.997,1.393-5.584,0.497-6.73  c-0.2-0.257-0.578-0.563-1.238-0.563c-0.53,0-1.056,0.353-1.504,0.869c-0.469-0.517-1.023-0.869-1.592-0.869  c-0.471,0-0.861,0.179-1.131,0.519c-0.884,1.114-0.265,3.761,0.452,6.826c0.373,1.597,0.758,3.243,0.848,4.47h-0.95  c-0.082-3.032-1.286-4.234-2.462-5.38c-1.188-1.158-2.312-2.252-2.312-5.479c0-3.526,3.327-6.62,7.12-6.62s7.12,3.094,7.12,6.62  c0,3.231-1.126,4.364-2.317,5.563C19.664,17.61,18.487,18.83,18.369,21.746z"/><text x="0" y="47" fill="#000000" font-size="5px" font-weight="bold" font-family="'Helvetica Neue', Helvetica, Arial-Unicode, Arial, Sans-serif">Created by Guilherme Simoes</text><text x="0" y="52" fill="#000000" font-size="5px" font-weight="bold" font-family="'Helvetica Neue', Helvetica, Arial-Unicode, Arial, Sans-serif">from the Noun Project</text></svg>