<svg xmlns="http://www.w3.org/2000/svg" xmlns:xlink="http://www.w3.org/1999/xlink" version="1.1" x="0px" y="0px" viewBox="0 0 32 40" enable-background="new 0 0 32 32" xml:space="preserve"><path d="M21.45,3.824c0.037-0.32-0.116-0.647-0.415-0.81l-0.051-0.028c-0.393-0.215-0.891-0.069-1.105,0.324l-0.802,1.466  c-0.788-0.348-1.628-0.608-2.52-0.742C11.148,3.222,6.071,6.956,5.254,12.37c-0.396,2.623,0.252,5.244,1.826,7.378  c0.7,0.95,1.553,1.744,2.508,2.378l-0.8,1.462c-0.215,0.393-0.069,0.89,0.324,1.105l0.051,0.028  c0.299,0.163,0.656,0.116,0.906-0.087c0.747,0.346,1.523,0.62,2.326,0.804c-1.237,0.51-2.27,1.276-2.934,2.247  c-0.105,0.152-0.117,0.352-0.03,0.516s0.257,0.267,0.442,0.267h12.254c0.186,0,0.355-0.103,0.442-0.267s0.075-0.363-0.03-0.516  c-0.804-1.175-2.142-2.056-3.739-2.536c1.179-0.39,2.302-0.969,3.33-1.727c2.556-1.885,4.225-4.652,4.699-7.792  C27.532,10.988,25.379,6.329,21.45,3.824z M12.677,7.869c0.082,0.097,0.198,0.16,0.324,0.174c1.128,0.13,2.064,0.777,2.638,1.82  c0.622,1.133,0.72,2.555,0.242,3.539c-0.78,1.609-1.497,1.613-3.398,0.802c-0.242-0.104-0.528,0.002-0.646,0.242  c-0.716,1.477-1.769,3.137-2.711,2.68c-0.52-0.252-0.824-0.689-0.907-1.301c-0.084-0.627,0.078-1.402,0.457-2.183  c0.485-1.001,0.256-1.671,0.071-2.209c-0.165-0.481-0.284-0.829,0.029-1.476c0.187-0.381,0.451-0.734,0.787-1.049  c0.112-0.105,0.17-0.256,0.156-0.41S9.621,8.206,9.492,8.122c-0.26-0.168-0.453-0.428-0.575-0.724  c1.091-1.038,2.433-1.797,3.908-2.184c-0.006,0.013-0.009,0.028-0.016,0.041c-0.084,0.173-0.205,0.339-0.372,0.505  c-0.054,0.054-0.095,0.121-0.119,0.193C12.141,6.481,12.045,7.12,12.677,7.869z M7.885,19.155c-1.415-1.921-1.999-4.277-1.643-6.636  c0.25-1.657,0.944-3.14,1.942-4.346c0.091,0.146,0.191,0.285,0.308,0.409C8.244,8.873,8.038,9.187,7.876,9.519  c-0.493,1.019-0.262,1.694-0.076,2.237c0.163,0.475,0.28,0.818-0.025,1.449c-0.47,0.969-0.659,1.921-0.548,2.752  c0.127,0.937,0.646,1.671,1.463,2.068c0.269,0.13,0.536,0.195,0.802,0.195c1.021,0,2.021-0.965,3.033-2.918  c1.667,0.66,3.132,0.852,4.257-1.465c0.611-1.262,0.505-3.053-0.266-4.457c-0.697-1.269-1.822-2.08-3.185-2.302  c-0.168-0.249-0.173-0.442-0.098-0.703c0.203-0.218,0.359-0.444,0.476-0.685c0.1-0.205,0.167-0.436,0.215-0.688  c0.377-0.049,0.757-0.083,1.144-0.083c0.442,0,0.891,0.033,1.34,0.101c2.854,0.432,5.182,2.182,6.479,4.533  c-0.995,0.197-1.849,0.841-2.292,1.754c-0.638,1.317-0.296,2.877,0.758,3.826c-0.157,0.172-0.289,0.365-0.392,0.577  c-0.171,0.354-0.254,0.739-0.243,1.129c-3.426,2.713-3.92,4.24-3.335,5.64c-1.173,0.315-2.407,0.393-3.645,0.205  C11.38,22.329,9.301,21.075,7.885,19.155z M18.329,22.165c-0.343-0.711-0.439-1.855,3.219-4.704c0.143-0.111,0.214-0.29,0.187-0.469  c-0.044-0.291,0-0.582,0.128-0.844c0.122-0.253,0.316-0.463,0.562-0.608c0.153-0.091,0.247-0.256,0.245-0.435  s-0.098-0.342-0.253-0.43c-1.029-0.585-1.434-1.872-0.92-2.93c0.342-0.705,1.046-1.173,1.845-1.24  c0.585,1.437,0.812,3.041,0.564,4.683c-0.356,2.359-1.61,4.438-3.53,5.854C19.736,21.513,19.047,21.882,18.329,22.165z   M10.976,27.468c1.185-1.07,3.043-1.727,5.024-1.727s3.84,0.656,5.024,1.727H10.976z M25.842,15.481  c-0.436,2.876-1.964,5.411-4.305,7.137c-2.341,1.728-5.214,2.438-8.091,2.003c-0.986-0.148-1.938-0.436-2.84-0.842l0.462-0.844  c0.796,0.349,1.639,0.605,2.521,0.738c0.504,0.076,1.006,0.114,1.506,0.114c2.104,0,4.147-0.668,5.873-1.94  c2.136-1.575,3.529-3.887,3.926-6.51c0.595-3.935-1.224-7.68-4.337-9.752l0.466-0.852C24.553,7.044,26.477,11.271,25.842,15.481z"/><text x="0" y="47" fill="#000000" font-size="5px" font-weight="bold" font-family="'Helvetica Neue', Helvetica, Arial-Unicode, Arial, Sans-serif">Created by Guilherme Simoes</text><text x="0" y="52" fill="#000000" font-size="5px" font-weight="bold" font-family="'Helvetica Neue', Helvetica, Arial-Unicode, Arial, Sans-serif">from the Noun Project</text></svg>