<svg xmlns="http://www.w3.org/2000/svg" xmlns:xlink="http://www.w3.org/1999/xlink" version="1.1" x="0px" y="0px" viewBox="0 0 32 40" enable-background="new 0 0 32 32" xml:space="preserve"><path d="M29.2,11.574l-12.937-8c-0.155-0.096-0.352-0.099-0.511-0.009L2.815,10.94c-0.156,0.089-0.253,0.255-0.252,0.436  c0,0.18,0.097,0.346,0.254,0.434L5,13.045v5.718c-0.954,0.214-1.671,1.065-1.671,2.083c0,0.997,1.427,3.338,1.713,3.797  c0.091,0.146,0.251,0.235,0.424,0.235s0.333-0.089,0.424-0.235c0.286-0.459,1.713-2.8,1.713-3.797c0-0.994-0.685-1.824-1.604-2.062  V13.61l2.06,1.165C8.025,14.843,8,14.918,8,15v7.062c0,2.305,3.439,4.042,8,4.042c4.71,0,8-1.576,8-3.832v-7.158l5.167-2.671  c0.16-0.083,0.264-0.245,0.271-0.425C29.444,11.839,29.354,11.669,29.2,11.574z M6.604,20.846c0,0.416-0.576,1.575-1.138,2.556  c-0.562-0.98-1.138-2.14-1.138-2.556c0-0.627,0.51-1.138,1.138-1.138S6.604,20.219,6.604,20.846z M23,22.272  c0,1.373-2.453,2.832-7,2.832c-4.324,0-7-1.579-7-3.042v-6.756l6.751,3.817c0.076,0.043,0.161,0.064,0.246,0.064  c0.079,0,0.158-0.019,0.229-0.056L23,15.631V22.272z M16.008,18.119L4.075,11.373L15.99,4.582l11.934,7.379L16.008,18.119z"/><text x="0" y="47" fill="#000000" font-size="5px" font-weight="bold" font-family="'Helvetica Neue', Helvetica, Arial-Unicode, Arial, Sans-serif">Created by Guilherme Simoes</text><text x="0" y="52" fill="#000000" font-size="5px" font-weight="bold" font-family="'Helvetica Neue', Helvetica, Arial-Unicode, Arial, Sans-serif">from the Noun Project</text></svg>