<svg xmlns="http://www.w3.org/2000/svg" xmlns:xlink="http://www.w3.org/1999/xlink" version="1.1" x="0px" y="0px" viewBox="0 0 100 100" enable-background="new 0 0 100 100" xml:space="preserve"><path d="M82.9,10.4H16.7c-3.6,0-6.6,2.9-6.6,6.6v66.3c0,3.6,2.9,6.6,6.6,6.6h66.3c3.6,0,6.6-2.9,6.6-6.6V16.9  C89.5,13.3,86.6,10.4,82.9,10.4z M84.9,80.5c0,2.6-2.1,4.6-4.6,4.6H19.5c-2.6,0-4.6-2.1-4.6-4.6V19.7c0-2.6,2.1-4.6,4.6-4.6h60.7  c2.6,0,4.6,2.1,4.6,4.6V80.5z"/><g><path d="M78.4,29.2H21.7c-1.3,0-2.4-1.1-2.4-2.4v-2.4c0-1.3,1.1-2.4,2.4-2.4h56.7c1.3,0,2.4,1.1,2.4,2.4v2.4   C80.9,28.2,79.8,29.2,78.4,29.2z"/><path d="M78.3,53.7H21.5c-1.3,0-2.4-1.1-2.4-2.4v-2.4c0-1.3,1.1-2.4,2.4-2.4h56.7c1.3,0,2.4,1.1,2.4,2.4v2.4   C80.7,52.6,79.6,53.7,78.3,53.7z"/><path d="M78.2,41.5H21.5c-1.3,0-2.4-1.1-2.4-2.4v-2.4c0-1.3,1.1-2.4,2.4-2.4h56.7c1.3,0,2.4,1.1,2.4,2.4v2.4   C80.6,40.4,79.6,41.5,78.2,41.5z"/><path d="M78.3,66H21.6c-1.3,0-2.4-1.1-2.4-2.4v-2.4c0-1.3,1.1-2.4,2.4-2.4h56.7c1.3,0,2.4,1.1,2.4,2.4v2.4   C80.8,64.9,79.7,66,78.3,66z"/><path d="M78.1,78.2H21.4c-1.3,0-2.4-1.1-2.4-2.4v-2.4c0-1.3,1.1-2.4,2.4-2.4h56.7c1.3,0,2.4,1.1,2.4,2.4v2.4   C80.6,77.1,79.5,78.2,78.1,78.2z"/></g></svg>