<svg xmlns="http://www.w3.org/2000/svg" xmlns:xlink="http://www.w3.org/1999/xlink" version="1.1" x="0px" y="0px" viewBox="0 0 100 100" enable-background="new 0 0 100 100" xml:space="preserve"><path fill="#000000" d="M50,23.109c-14.828,0-26.891,12.063-26.891,26.891c0,1.657-1.343,3-3,3s-3-1.343-3-3  c0-18.136,14.755-32.891,32.891-32.891c6.33,0,12.482,1.811,17.793,5.238c1.392,0.898,1.792,2.755,0.894,4.147  c-0.896,1.391-2.755,1.793-4.147,0.894C60.201,24.588,55.174,23.109,50,23.109z M95.22,50c0,24.974-20.246,45.22-45.22,45.22  S4.78,74.974,4.78,50C4.78,25.026,25.026,4.78,50,4.78S95.22,25.026,95.22,50z M89.22,50c0-21.626-17.594-39.22-39.22-39.22  S10.78,28.374,10.78,50S28.374,89.22,50,89.22S89.22,71.626,89.22,50z M71.034,28.573L53.052,43.553  c-0.927-0.44-1.959-0.693-3.052-0.693c-3.943,0-7.14,3.197-7.14,7.14s3.197,7.14,7.14,7.14s7.14-3.197,7.14-7.14  c0-0.636-0.091-1.25-0.247-1.837l17.982-14.979c1.273-1.061,1.445-2.952,0.385-4.225C74.2,27.686,72.308,27.513,71.034,28.573z"/></svg>