<svg xmlns="http://www.w3.org/2000/svg" xmlns:xlink="http://www.w3.org/1999/xlink" version="1.1" x="0px" y="0px" viewBox="0 0 32 32" enable-background="new 0 0 32 32" xml:space="preserve"><g><g><path fill="#000000" d="M7.8,27.1c-0.7,0-1.4-0.3-1.9-0.8C5.3,25.8,5,25.1,5,24.4c0-0.7,0.3-1.4,0.8-1.9c1-1,2.8-1,3.8,0    c0.5,0.5,0.8,1.2,0.8,1.9c0,0.7-0.3,1.4-0.8,1.9C9.2,26.8,8.5,27.1,7.8,27.1z M7.8,23.2c-0.3,0-0.6,0.1-0.9,0.4    c-0.2,0.2-0.4,0.5-0.4,0.9c0,0.3,0.1,0.6,0.4,0.9c0.5,0.5,1.3,0.5,1.7,0C8.8,25,9,24.7,9,24.4c0-0.3-0.1-0.6-0.4-0.9    C8.4,23.3,8.1,23.2,7.8,23.2z"/></g><g><path fill="#000000" d="M10.4,31.2c-2.7,0-5.3-1.2-7.1-3.2C0,24.4,0.1,18.8,3.5,15.2c1.8-1.9,4.2-2.9,6.8-2.9    c0.9,0,1.8,0.1,2.7,0.4L23.7,2.1c0.3-0.3,0.7-0.5,1.1-0.6l3.6-0.7c1.3-0.2,2.5,0.8,2.5,2.1l0.1,4.7c0,0.6-0.2,1.2-0.6,1.6L19.6,20    c0.6,3.1-0.3,6.3-2.6,8.5C15.3,30.3,12.9,31.2,10.4,31.2z M10.3,13.8c-2.2,0-4.2,0.9-5.7,2.4c-2.9,3-3,7.8-0.2,10.8    c1.5,1.7,3.7,2.7,5.9,2.7c2.1,0,4.1-0.8,5.6-2.3c2-2,2.8-4.8,2.1-7.5L18,19.5L29.4,8.1c0.1-0.1,0.2-0.3,0.2-0.5l-0.1-4.7    c0-0.4-0.4-0.7-0.8-0.6l-3.6,0.7c-0.1,0-0.2,0.1-0.3,0.2L13.4,14.4L13,14.3C12.1,14,11.2,13.8,10.3,13.8z"/></g><g><rect x="20.7" y="2.5" transform="matrix(0.7071 0.7071 -0.7071 0.7071 13.1065 -12.3163)" fill="#000000" width="1.5" height="14.3"/></g></g></svg>