<svg xmlns="http://www.w3.org/2000/svg" xmlns:xlink="http://www.w3.org/1999/xlink" version="1.1" x="0px" y="0px" viewBox="0 0 100 100" enable-background="new 0 0 100 100" xml:space="preserve"><path d="M85.971,57.207c-0.093-2.341-1.179-4.203-2.037-5.32c1.02-2.478,1.454-6.418-1.908-9.491  c-5.509-5.035-18.531-2.301-19.998-1.973c-0.006,0.001-0.011,0.003-0.017,0.004c-0.829,0.147-1.703,0.324-2.603,0.527  c-0.102-0.915-0.008-3.366,1.93-9.246c2.166-6.574,2.039-11.602-0.378-14.944c-2.539-3.51-6.606-3.783-7.792-3.783  c-1.146,0-2.143,0.457-2.884,1.322c-1.705,1.991-1.459,5.797-1.274,7.341c-2.039,5.491-7.817,19.057-12.729,22.826  c-0.08,0.062-0.156,0.13-0.226,0.203c-1.467,1.541-2.438,3.228-3.077,4.677c-0.928-0.534-2-0.845-3.145-0.845H20.35  c-3.489,0-6.328,2.839-6.328,6.328v25.255c0,3.489,2.839,6.328,6.328,6.328h9.483c1.435,0,2.756-0.486,3.819-1.295l3.524,0.537  c0.014,0.002,0.028,0.004,0.041,0.006c0.422,0.055,10.439,1.345,20.714,1.137c1.852,0.144,3.587,0.216,5.197,0.216  c2.778,0,5.188-0.214,7.201-0.642c4.709-1.001,7.927-2.997,9.563-5.933c1.264-2.269,1.234-4.538,1.025-5.944  c4.228-3.806,3.964-8.377,2.887-11.169C85.328,61.396,86.056,59.341,85.971,57.207z M20.35,82.503c-1.331,0-2.414-1.083-2.414-2.414  V54.834c0-1.331,1.083-2.414,2.414-2.414h9.483c0.841,0,1.582,0.434,2.014,1.088c0.044,0.332,0.164,0.645,0.358,0.907  c0.024,0.137,0.042,0.276,0.042,0.419v25.255c0,1.331-1.083,2.414-2.414,2.414H20.35z M80.074,61.662  c-0.612,0.64-0.727,1.597-0.268,2.354c0.27,0.462,2.498,4.617-2.232,8.17c-0.686,0.515-0.962,1.4-0.673,2.208  c0.029,0.087,0.706,2.159-0.452,4.188c-1.073,1.882-3.406,3.217-6.934,3.966c-2.831,0.602-6.658,0.718-11.373,0.345  c-0.065-0.005-0.131-0.007-0.196-0.006c-9.8,0.208-19.706-1.037-20.203-1.1l-1.752-0.267c0.107-0.461,0.169-0.938,0.169-1.431  V54.834c0-0.67-0.107-1.316-0.301-1.923c0.293-1.11,1.087-3.448,2.934-5.438c6.945-5.497,13.77-24.147,14.059-24.943  c0.112-0.31,0.145-0.643,0.094-0.968c-0.285-1.834-0.147-4.116,0.269-4.667c0.773,0.007,3.152,0.198,4.573,2.163  c1.617,2.235,1.559,6.186-0.168,11.426c-2.586,7.847-2.828,11.961-0.808,13.755c0.99,0.879,2.3,0.928,3.254,0.579  c0.949-0.218,1.865-0.404,2.725-0.555c0.063-0.011,0.126-0.025,0.188-0.042c3.298-0.722,13.042-2.012,16.407,1.064  c2.599,2.376,0.767,5.508,0.557,5.846c-0.514,0.801-0.367,1.865,0.334,2.509c0.017,0.016,1.716,1.599,1.785,3.755  C82.107,58.801,81.438,60.237,80.074,61.662z"/></svg>