<svg xmlns="http://www.w3.org/2000/svg" xmlns:xlink="http://www.w3.org/1999/xlink" version="1.1" x="0px" y="0px" viewBox="0 0 100 100" enable-background="new 0 0 100 100" xml:space="preserve"><g><path d="M50,36.011c-7.714,0-13.989,6.275-13.989,13.989S42.286,63.989,50,63.989S63.989,57.714,63.989,50S57.713,36.011,50,36.011   z M50,59.622c-5.305,0-9.622-4.317-9.622-9.622s4.316-9.622,9.622-9.622s9.622,4.316,9.622,9.622S55.305,59.622,50,59.622z"/><path d="M89.552,45.599C83.737,39.905,68.243,26.661,50,26.661c-18.244,0-33.738,13.245-39.552,18.939   c-1.195,1.17-1.853,2.732-1.853,4.4c-0.001,1.668,0.657,3.231,1.853,4.402C16.262,60.096,31.755,73.339,50,73.339   c18.244,0,33.738-13.244,39.553-18.938c1.195-1.171,1.853-2.734,1.852-4.402C91.405,48.332,90.747,46.769,89.552,45.599z    M86.497,51.281C81.065,56.6,66.635,68.972,50,68.972c-16.637,0-31.065-12.372-36.496-17.691c-0.35-0.342-0.542-0.797-0.542-1.281   c0-0.484,0.192-0.938,0.541-1.28C18.935,43.4,33.364,31.028,50,31.028c16.634,0,31.065,12.372,36.497,17.692   c0.349,0.342,0.541,0.796,0.541,1.28C87.039,50.484,86.846,50.939,86.497,51.281z"/></g></svg>